<svg xmlns="http://www.w3.org/2000/svg" xmlns:xlink="http://www.w3.org/1999/xlink" viewBox="0 0 905.46 205.82"><defs><style>.cls-1{fill:#020230;opacity:0.6;}.cls-2{fill:url(#Áåçûìÿííûé_ãðàäèåíò_33);}.cls-3{fill:url(#Áåçûìÿííûé_ãðàäèåíò_113);}.cls-4{fill:url(#Áåçûìÿííûé_ãðàäèåíò_109);}.cls-5{fill:url(#Áåçûìÿííûé_ãðàäèåíò_343);}.cls-6{fill:#fff;}.cls-11,.cls-7{opacity:0.4;}.cls-11,.cls-12,.cls-15,.cls-8{fill:#06033e;}.cls-9{fill:url(#Áåçûìÿííûé_ãðàäèåíò_343-2);}.cls-10{fill:url(#Áåçûìÿííûé_ãðàäèåíò_441);}.cls-12,.cls-14{opacity:0.5;}.cls-13{fill:url(#Áåçûìÿííûé_ãðàäèåíò_343-3);}.cls-15{font-size:91.44px;font-family:Bauhaus93, "Bauhaus 93";}</style><linearGradient id="Áåçûìÿííûé_ãðàäèåíò_33" y1="146.74" x2="202.56" y2="146.74" gradientUnits="userSpaceOnUse"><stop offset="0" stop-color="#e39a65"/><stop offset="1" stop-color="#e95f8d"/></linearGradient><radialGradient id="Áåçûìÿííûé_ãðàäèåíò_113" cx="111.88" cy="-3.23" r="154.71" gradientUnits="userSpaceOnUse"><stop offset="0" stop-color="#e39a65"/><stop offset="0.47" stop-color="#a92ffb"/><stop offset="0.59" stop-color="#891cfb"/><stop offset="0.74" stop-color="#6507fa"/><stop offset="0.8" stop-color="#0d0c6f"/></radialGradient><radialGradient id="Áåçûìÿííûé_ãðàäèåíò_109" cx="17.26" cy="121.02" r="169.17" gradientUnits="userSpaceOnUse"><stop offset="0" stop-color="#e39a65"/><stop offset="0.47" stop-color="#a92ffb"/><stop offset="0.57" stop-color="#891cfb"/><stop offset="0.68" stop-color="#6507fa"/><stop offset="0.74" stop-color="#0d0c6f"/></radialGradient><radialGradient id="Áåçûìÿííûé_ãðàäèåíò_343" cx="32.82" cy="87.06" r="151.7" gradientUnits="userSpaceOnUse"><stop offset="0" stop-color="#e39a65"/><stop offset="0.47" stop-color="#a92ffb"/><stop offset="0.59" stop-color="#891cfb"/><stop offset="0.73" stop-color="#6507fa"/><stop offset="1" stop-color="#3919bb"/></radialGradient><radialGradient id="Áåçûìÿííûé_ãðàäèåíò_343-2" cx="70.61" cy="29.04" r="154.74" xlink:href="#Áåçûìÿííûé_ãðàäèåíò_343"/><linearGradient id="Áåçûìÿííûé_ãðàäèåíò_441" x1="87.62" y1="69.66" x2="211.62" y2="69.66" gradientUnits="userSpaceOnUse"><stop offset="0" stop-color="#3919bb"/><stop offset="1" stop-color="#6507fa"/></linearGradient><radialGradient id="Áåçûìÿííûé_ãðàäèåíò_343-3" cx="14.12" cy="-4" r="241" xlink:href="#Áåçûìÿííûé_ãðàäèåíò_343"/></defs><g id="Layer_2" data-name="Layer 2"><g id="Layer_1-2" data-name="Layer 1"><path class="cls-1" d="M116.51,195.39,16.44,137.62c-1.46-.84-1.27-2.31.41-3.29L81.07,97.25A6.34,6.34,0,0,1,86.76,97l100.07,57.77c1.46.84,1.28,2.31-.41,3.29L122.2,195.16A6.34,6.34,0,0,1,116.51,195.39Z"/><path class="cls-2" d="M118.8,205.82a6.46,6.46,0,0,1-3.15-.73h0L1.45,139.15A2.55,2.55,0,0,1,0,137a3.3,3.3,0,0,1,1.91-2.68L79.76,88.67a7.85,7.85,0,0,1,7.15-.27l114.2,65.94a2.56,2.56,0,0,1,1.45,2.18,3.3,3.3,0,0,1-1.91,2.68L122.8,204.81A8.17,8.17,0,0,1,118.8,205.82ZM83.77,89a6.91,6.91,0,0,0-3.36.83L2.56,135.4c-.8.46-1.27,1-1.27,1.56a1.37,1.37,0,0,0,.8,1.07L116.3,204h0a6.62,6.62,0,0,0,5.85-.27L200,158.09c.8-.46,1.27-1.05,1.27-1.57a1.37,1.37,0,0,0-.8-1.07L86.26,89.52A5.06,5.06,0,0,0,83.77,89Z"/><path class="cls-3" d="M213.42,57.93,113.74.39a2.58,2.58,0,0,0-2-.3h0l-1.85.64.65.15A3.36,3.36,0,0,0,109.89,2L87.35,75.22a4.4,4.4,0,0,0,1.83,4.92l99.67,57.55a2.88,2.88,0,0,0,.74.3l-.25.54,1.76-.62h0a2.8,2.8,0,0,0,1.6-1.87l22.54-73.18A4.43,4.43,0,0,0,213.42,57.93Z"/><path class="cls-4" d="M185.29,140.42l0,.05L86.87,83.63a6.25,6.25,0,0,0-5.65.23L17.61,120.58l-2.12-.81.59,3h0a1.77,1.77,0,0,0,.95,1.19l99.36,57.37a6.29,6.29,0,0,0,5.65-.24l63.78-36.82a2.57,2.57,0,0,0,1.35-1.57h0l.61-2.89Z"/><path class="cls-5" d="M116.51,178.69,16.44,120.91c-1.46-.84-1.27-2.31.41-3.28L81.07,80.55a6.34,6.34,0,0,1,5.69-.24l100.07,57.78c1.46.84,1.28,2.31-.41,3.28L122.2,178.45A6.34,6.34,0,0,1,116.51,178.69Z"/><path class="cls-6" d="M186.42,140.59,122.2,177.67a6.31,6.31,0,0,1-5.69.24L16.44,120.14a1.86,1.86,0,0,1-.91-1,1.55,1.55,0,0,0,.91,1.81l100.07,57.78a6.34,6.34,0,0,0,5.69-.24l64.22-37.08c1.11-.64,1.56-1.49,1.32-2.24A2.62,2.62,0,0,1,186.42,140.59Z"/><g class="cls-7"><path class="cls-8" d="M64.17,111.54l-3.38-2c-.27-.16-.23-.43.08-.61l4-2.31a1.17,1.17,0,0,1,1.06,0l3.37,2c.28.16.24.43-.07.61l-4,2.3A1.14,1.14,0,0,1,64.17,111.54Z"/><path class="cls-8" d="M69.39,114.55l-3.38-2c-.27-.16-.24-.43.08-.61l4-2.3a1.21,1.21,0,0,1,1.06,0l3.38,2c.27.16.24.43-.07.61l-4,2.31A1.17,1.17,0,0,1,69.39,114.55Z"/><path class="cls-8" d="M74.61,117.56l-3.38-2c-.27-.15-.24-.43.07-.61l4-2.3a1.17,1.17,0,0,1,1.06,0l3.38,2c.27.15.24.43-.08.61l-4,2.3A1.17,1.17,0,0,1,74.61,117.56Z"/><path class="cls-8" d="M81.82,115.08l-3.38-2c-.27-.15-.23-.43.08-.61l3.35-1.93a1.17,1.17,0,0,1,1.06,0l3.37,1.95c.28.15.24.43-.07.61L82.88,115A1.21,1.21,0,0,1,81.82,115.08Z"/><path class="cls-8" d="M87,118.09l-3.38-2c-.27-.16-.24-.43.08-.61l3.35-1.94a1.15,1.15,0,0,1,1,0l3.38,2c.27.16.24.43-.07.61L88.1,118A1.21,1.21,0,0,1,87,118.09Z"/><path class="cls-8" d="M92.26,121.1l-3.38-1.95c-.27-.16-.24-.43.07-.61l3.35-1.93a1.17,1.17,0,0,1,1.06,0l3.38,2c.27.16.24.43-.08.61l-3.34,1.94A1.17,1.17,0,0,1,92.26,121.1Z"/><path class="cls-8" d="M97.47,124.11l-3.37-2c-.28-.16-.24-.43.07-.61l3.35-1.93a1.21,1.21,0,0,1,1.06-.05l3.38,2c.27.16.23.43-.08.62l-3.35,1.93A1.17,1.17,0,0,1,97.47,124.11Z"/><path class="cls-8" d="M102.69,127.12l-3.38-2c-.27-.15-.23-.43.08-.61l3.35-1.93a1.17,1.17,0,0,1,1.06,0l3.37,2c.27.15.24.43-.07.61l-3.35,1.93A1.17,1.17,0,0,1,102.69,127.12Z"/><path class="cls-8" d="M107.91,130.14l-3.38-1.95c-.27-.16-.24-.43.08-.62l3.34-1.93a1.17,1.17,0,0,1,1.06,0l3.38,2c.27.16.24.43-.08.61L109,130.09A1.21,1.21,0,0,1,107.91,130.14Z"/><path class="cls-8" d="M113.13,133.15l-3.38-2c-.27-.16-.24-.43.07-.61l3.35-1.94a1.17,1.17,0,0,1,1.06,0l3.38,1.95c.27.16.24.43-.08.61l-3.35,1.93A1.12,1.12,0,0,1,113.13,133.15Z"/><path class="cls-8" d="M118.34,136.16,115,134.21c-.28-.16-.24-.43.07-.61l3.35-1.93a1.21,1.21,0,0,1,1.06,0l3.38,1.95c.27.16.23.43-.08.61l-3.35,1.94A1.17,1.17,0,0,1,118.34,136.16Z"/><path class="cls-8" d="M123.56,139.17l-3.38-1.95c-.27-.15-.23-.43.08-.61l3.35-1.93a1.18,1.18,0,0,1,1-.05l3.38,2c.27.15.24.43-.07.61l-3.35,1.93A1.17,1.17,0,0,1,123.56,139.17Z"/><path class="cls-8" d="M128.78,142.19l-3.38-2c-.27-.15-.24-.43.08-.61l3.34-1.93a1.17,1.17,0,0,1,1.06,0l3.38,1.95c.27.15.24.43-.08.61l-3.34,1.93A1.21,1.21,0,0,1,128.78,142.19Z"/><path class="cls-8" d="M89.51,113.65l-3.38-2c-.27-.16-.24-.43.08-.61l3.35-1.93a1.12,1.12,0,0,1,1,0l3.38,2c.27.16.24.43-.07.61l-3.35,1.94A1.17,1.17,0,0,1,89.51,113.65Z"/><path class="cls-8" d="M84.21,110.59l-3.37-2c-.27-.16-.24-.43.07-.61l3.35-1.93a1.21,1.21,0,0,1,1.06,0l3.38,2c.27.16.23.43-.08.62l-3.35,1.93A1.17,1.17,0,0,1,84.21,110.59Z"/><path class="cls-8" d="M78.91,107.53l-7.28-4.2c-.27-.16-.23-.43.08-.61l3.35-1.93a1.14,1.14,0,0,1,1.06-.05l7.27,4.2c.27.16.24.43-.07.61L80,107.49A1.17,1.17,0,0,1,78.91,107.53Z"/><path class="cls-8" d="M82.62,103.81l-5.91-3.41c-.27-.16-.23-.43.08-.61l3.35-1.94a1.17,1.17,0,0,1,1.06,0l5.9,3.41c.27.16.24.43-.08.61l-3.34,1.93A1.21,1.21,0,0,1,82.62,103.81Z"/><path class="cls-8" d="M94.73,116.66l-3.38-2c-.27-.16-.24-.43.07-.61l3.35-1.93a1.21,1.21,0,0,1,1.06,0l3.38,1.95c.27.16.24.43-.08.61l-3.34,1.94A1.17,1.17,0,0,1,94.73,116.66Z"/><path class="cls-8" d="M99.94,119.67l-3.37-2c-.28-.15-.24-.43.07-.61l3.35-1.93a1.17,1.17,0,0,1,1.06,0l3.38,2c.27.15.23.43-.08.61L101,119.63A1.17,1.17,0,0,1,99.94,119.67Z"/><path class="cls-8" d="M105.16,122.69l-3.38-2c-.27-.16-.23-.43.08-.62l3.35-1.93a1.17,1.17,0,0,1,1.06,0l3.37,1.95c.27.15.24.43-.07.61l-3.35,1.93A1.21,1.21,0,0,1,105.16,122.69Z"/><path class="cls-8" d="M110.38,125.7l-3.38-2c-.27-.16-.24-.43.08-.61l3.34-1.94a1.17,1.17,0,0,1,1.06,0l3.38,2c.27.16.24.43-.08.61l-3.34,1.93A1.17,1.17,0,0,1,110.38,125.7Z"/><path class="cls-8" d="M115.6,128.71l-3.38-2c-.27-.16-.24-.43.07-.61l3.35-1.93a1.21,1.21,0,0,1,1.06,0l3.38,2c.27.16.24.43-.08.61l-3.35,1.94A1.15,1.15,0,0,1,115.6,128.71Z"/><path class="cls-8" d="M120.81,131.72l-3.37-1.95c-.28-.15-.24-.43.07-.61l3.35-1.93a1.21,1.21,0,0,1,1.06,0l3.38,1.95c.27.16.23.44-.08.62l-3.35,1.93A1.17,1.17,0,0,1,120.81,131.72Z"/><path class="cls-8" d="M126,134.73l-3.38-1.95c-.27-.15-.23-.43.08-.61l3.35-1.93a1.15,1.15,0,0,1,1,0l3.38,2c.27.15.24.43-.07.61l-3.35,1.93A1.17,1.17,0,0,1,126,134.73Z"/><path class="cls-8" d="M131.25,137.75l-3.38-1.95c-.27-.16-.24-.43.08-.61l3.34-1.94a1.17,1.17,0,0,1,1.06,0l3.38,1.95c.27.16.24.43-.08.61l-3.34,1.93A1.21,1.21,0,0,1,131.25,137.75Z"/><path class="cls-8" d="M136.47,140.76l-3.38-1.95c-.27-.16-.24-.43.07-.61l3.35-1.94a1.17,1.17,0,0,1,1.06,0l3.38,1.95c.27.16.23.43-.08.61l-3.35,1.94A1.15,1.15,0,0,1,136.47,140.76Z"/><path class="cls-8" d="M145.74,146.11l-7.37-4.25c-.27-.16-.24-.43.08-.61l3.34-1.94a1.17,1.17,0,0,1,1.06,0l7.37,4.26c.27.15.24.43-.07.61l-3.35,1.93A1.17,1.17,0,0,1,145.74,146.11Z"/><path class="cls-8" d="M155.9,140.25l-6.22-3.59c-.27-.16-.24-.43.07-.61l3.35-1.94a1.17,1.17,0,0,1,1.06,0l6.22,3.59c.27.16.24.43-.08.61L157,140.21A1.17,1.17,0,0,1,155.9,140.25Z"/><path class="cls-8" d="M103.86,116.07l-3.37-1.95c-.28-.16-.24-.43.07-.61l3.35-1.93a1.21,1.21,0,0,1,1.06,0l3.38,2c.27.16.23.43-.08.62L104.92,116A1.17,1.17,0,0,1,103.86,116.07Z"/><path class="cls-8" d="M98.52,113l-3.38-2c-.27-.15-.24-.43.07-.61l3.35-1.93a1.17,1.17,0,0,1,1.06,0l3.38,2c.27.15.24.43-.08.61l-3.34,1.93A1.17,1.17,0,0,1,98.52,113Z"/><path class="cls-8" d="M93.17,109.9l-3.38-2c-.27-.16-.24-.43.08-.61l3.34-1.94a1.17,1.17,0,0,1,1.06,0l3.38,2c.27.16.24.43-.07.61l-3.35,1.93A1.21,1.21,0,0,1,93.17,109.9Z"/><path class="cls-8" d="M87.82,106.81l-3.38-2c-.27-.16-.23-.43.08-.61l3.35-1.93a1.2,1.2,0,0,1,1.06,0l3.37,2c.28.16.24.43-.07.61l-3.35,1.94A1.17,1.17,0,0,1,87.82,106.81Z"/><path class="cls-8" d="M109.08,119.08l-3.38-2c-.27-.15-.23-.43.08-.61l3.35-1.93a1.15,1.15,0,0,1,1.05,0l3.38,2c.27.15.24.43-.07.61L110.14,119A1.17,1.17,0,0,1,109.08,119.08Z"/><path class="cls-8" d="M114.3,122.1l-3.38-1.95c-.27-.16-.24-.43.08-.61l3.34-1.94a1.17,1.17,0,0,1,1.06,0l3.38,2c.27.16.24.43-.08.61l-3.34,1.93A1.21,1.21,0,0,1,114.3,122.1Z"/><path class="cls-8" d="M119.52,125.11l-3.38-2c-.27-.16-.24-.43.07-.61l3.35-1.94a1.17,1.17,0,0,1,1.06,0l3.38,2c.27.16.23.43-.08.61l-3.35,1.93A1.12,1.12,0,0,1,119.52,125.11Z"/><path class="cls-8" d="M124.73,128.12l-3.38-2c-.27-.16-.23-.43.08-.61l3.35-1.93a1.21,1.21,0,0,1,1.06,0l3.37,2c.28.16.24.43-.07.61l-3.35,1.94A1.17,1.17,0,0,1,124.73,128.12Z"/><path class="cls-8" d="M130,131.13l-3.38-1.95c-.27-.15-.24-.43.08-.61l3.35-1.93a1.15,1.15,0,0,1,1.05,0l3.38,2c.27.15.24.43-.07.61L131,131.09A1.17,1.17,0,0,1,130,131.13Z"/><path class="cls-8" d="M135.17,134.15l-3.38-2c-.27-.15-.24-.43.08-.61l3.34-1.93a1.17,1.17,0,0,1,1.06,0l3.38,1.95c.27.15.24.43-.08.61l-3.34,1.93A1.21,1.21,0,0,1,135.17,134.15Z"/><path class="cls-8" d="M140.38,137.16,137,135.21c-.27-.16-.24-.43.07-.61l3.35-1.94a1.17,1.17,0,0,1,1.06,0l3.38,1.95c.27.16.23.43-.08.61l-3.35,1.93A1.2,1.2,0,0,1,140.38,137.16Z"/><path class="cls-8" d="M145.6,140.17l-3.38-1.95c-.27-.16-.23-.43.08-.61l3.35-1.93a1.17,1.17,0,0,1,1.06-.05l3.37,2c.28.16.24.43-.07.61l-3.35,1.94A1.17,1.17,0,0,1,145.6,140.17Z"/><path class="cls-8" d="M150.82,143.18l-3.38-2c-.27-.16-.24-.43.08-.61l3.34-1.93a1.21,1.21,0,0,1,1.06-.05l3.38,2c.27.16.24.43-.07.62l-3.35,1.93A1.17,1.17,0,0,1,150.82,143.18Z"/><path class="cls-8" d="M101.12,108.62l-3.38-2c-.27-.16-.24-.43.07-.61l3.35-1.93a1.21,1.21,0,0,1,1.06,0l3.38,2c.27.16.24.43-.08.62l-3.34,1.93A1.17,1.17,0,0,1,101.12,108.62Z"/><path class="cls-8" d="M95.93,105.62l-3.38-2c-.27-.15-.24-.43.07-.61L96,101.13a1.17,1.17,0,0,1,1.06,0l3.38,2c.27.15.23.43-.08.61L97,105.58A1.15,1.15,0,0,1,95.93,105.62Z"/><path class="cls-8" d="M90.73,102.63l-3.37-1.95c-.28-.16-.24-.43.07-.61l3.35-1.94a1.17,1.17,0,0,1,1.06,0l3.38,2c.27.16.23.43-.08.61l-3.35,1.93A1.2,1.2,0,0,1,90.73,102.63Z"/><path class="cls-8" d="M85.54,99.63l-3.38-1.95c-.27-.16-.23-.43.08-.61l3.35-1.93a1.17,1.17,0,0,1,1.06,0L90,97c.28.16.24.43-.07.61L86.6,99.59A1.17,1.17,0,0,1,85.54,99.63Z"/><path class="cls-8" d="M90.88,96.55l-3.38-2c-.27-.16-.23-.43.08-.61l1.11-.64a1.18,1.18,0,0,1,1,0l3.38,2c.27.16.24.43-.07.62l-1.11.63A1.21,1.21,0,0,1,90.88,96.55Z"/><path class="cls-8" d="M97.66,100.46l-3.38-1.95c-.27-.16-.24-.43.07-.61l1.11-.64a1.21,1.21,0,0,1,1.06-.05l3.38,2c.27.15.23.43-.08.61l-1.11.64A1.15,1.15,0,0,1,97.66,100.46Z"/><path class="cls-8" d="M102.83,103.44l-3.38-2c-.27-.15-.24-.43.07-.61l1.11-.64a1.17,1.17,0,0,1,1.06,0l3.38,2c.27.16.23.43-.08.61l-1.11.64A1.15,1.15,0,0,1,102.83,103.44Z"/><path class="cls-8" d="M108,106.43l-3.38-2c-.27-.16-.24-.43.07-.61l1.11-.64a1.21,1.21,0,0,1,1.06,0l3.38,1.95c.27.16.23.44-.08.62l-1.11.63A1.12,1.12,0,0,1,108,106.43Z"/><path class="cls-8" d="M113.16,109.41l-3.37-2c-.27-.15-.24-.43.07-.61l1.11-.64a1.17,1.17,0,0,1,1.06,0l3.38,2c.27.16.23.43-.08.61l-1.11.64A1.17,1.17,0,0,1,113.16,109.41Z"/><path class="cls-8" d="M142,126.08l-3.38-2c-.27-.16-.24-.43.07-.61l1.11-.64a1.21,1.21,0,0,1,1.06,0l3.38,2c.27.16.23.43-.08.61l-1.11.64A1.18,1.18,0,0,1,142,126.08Z"/><path class="cls-8" d="M147.2,129.06l-3.38-2c-.27-.16-.24-.43.07-.61l1.11-.64a1.17,1.17,0,0,1,1.06,0l3.38,2c.27.15.23.43-.08.61l-1.11.64A1.15,1.15,0,0,1,147.2,129.06Z"/><path class="cls-8" d="M152.37,132.05l-3.38-2c-.27-.16-.24-.43.07-.62l1.11-.63a1.17,1.17,0,0,1,1.06,0l3.38,1.95c.27.16.23.43-.08.61l-1.11.64A1.18,1.18,0,0,1,152.37,132.05Z"/><path class="cls-8" d="M157.54,135l-3.38-1.95c-.27-.16-.24-.43.07-.61l1.11-.64a1.17,1.17,0,0,1,1.06,0l3.38,2c.27.15.23.43-.08.61l-1.11.64A1.15,1.15,0,0,1,157.54,135Z"/><path class="cls-8" d="M106.33,111.63,103,109.68c-.28-.15-.24-.43.07-.61l3.35-1.93a1.17,1.17,0,0,1,1.06,0l3.38,2c.27.15.23.43-.08.61l-3.35,1.93A1.17,1.17,0,0,1,106.33,111.63Z"/><path class="cls-8" d="M111.55,114.65l-3.38-2c-.27-.16-.23-.43.08-.62l3.35-1.93a1.15,1.15,0,0,1,1.05,0l3.38,2c.27.16.24.43-.07.61l-3.35,1.93A1.21,1.21,0,0,1,111.55,114.65Z"/><path class="cls-8" d="M116.77,117.66l-3.38-2c-.27-.16-.24-.43.08-.61l3.34-1.94a1.17,1.17,0,0,1,1.06,0l3.38,1.95c.27.16.24.43-.08.61l-3.34,1.93A1.17,1.17,0,0,1,116.77,117.66Z"/><path class="cls-8" d="M122,120.67l-3.38-2c-.27-.16-.24-.43.07-.61l3.35-1.93a1.21,1.21,0,0,1,1.06-.05l3.38,2c.27.16.23.43-.08.61L123,120.63A1.15,1.15,0,0,1,122,120.67Z"/><path class="cls-8" d="M127.2,123.68l-3.38-2c-.27-.15-.23-.43.08-.61l3.35-1.93a1.21,1.21,0,0,1,1.06,0l3.37,2c.28.15.24.43-.07.61l-3.35,1.93A1.17,1.17,0,0,1,127.2,123.68Z"/><path class="cls-8" d="M132.42,126.69l-3.38-2c-.27-.15-.24-.43.08-.61l3.35-1.93a1.15,1.15,0,0,1,1.05,0l3.38,2c.27.15.24.43-.07.61l-3.35,1.93A1.17,1.17,0,0,1,132.42,126.69Z"/><path class="cls-8" d="M137.64,129.71l-3.38-2c-.27-.16-.24-.43.08-.61l3.34-1.94a1.17,1.17,0,0,1,1.06,0l3.38,2c.27.16.24.43-.08.61l-3.34,1.93A1.21,1.21,0,0,1,137.64,129.71Z"/><path class="cls-8" d="M142.86,132.72l-3.38-1.95c-.27-.16-.24-.43.07-.61l3.35-1.93a1.14,1.14,0,0,1,1.06,0l3.38,1.95c.27.16.23.43-.08.61l-3.35,1.94A1.15,1.15,0,0,1,142.86,132.72Z"/><path class="cls-8" d="M148.07,135.73l-3.38-1.95c-.27-.16-.23-.43.08-.61l3.35-1.93a1.2,1.2,0,0,1,1.06-.05l3.37,1.95c.28.16.24.43-.07.61l-3.35,1.94A1.17,1.17,0,0,1,148.07,135.73Z"/><path class="cls-8" d="M76.51,112l-10-5.75c-.28-.16-.24-.43.07-.61L70,103.72a1.21,1.21,0,0,1,1.06,0L81,109.42c.27.15.23.43-.08.61L77.56,112A1.18,1.18,0,0,1,76.51,112Z"/><path class="cls-8" d="M140.6,149l-9.95-5.74c-.27-.16-.24-.43.08-.61l3.35-1.94a1.15,1.15,0,0,1,1,0l10,5.74c.27.16.24.43-.07.61L141.66,149A1.17,1.17,0,0,1,140.6,149Z"/><path class="cls-8" d="M119.74,143.62l-3.38-2c-.27-.16-.24-.43.07-.61l4-2.31a1.17,1.17,0,0,1,1.06,0l3.38,1.95c.27.16.24.43-.08.61l-4,2.3A1.14,1.14,0,0,1,119.74,143.62Z"/><path class="cls-8" d="M81.85,121.74l-5.4-3.12c-.28-.15-.24-.43.07-.61l4-2.3a1.17,1.17,0,0,1,1.06,0l5.4,3.12c.27.15.24.43-.08.61l-4,2.3A1.17,1.17,0,0,1,81.85,121.74Z"/><path class="cls-8" d="M114.71,140.72l-5.4-3.12c-.27-.16-.24-.43.07-.61l4-2.31a1.17,1.17,0,0,1,1.06,0l5.4,3.12c.27.16.24.43-.07.61l-4,2.3A1.21,1.21,0,0,1,114.71,140.72Z"/><path class="cls-8" d="M89.38,126.09,84,123c-.27-.16-.23-.43.08-.61l4-2.3a1.2,1.2,0,0,1,1.06,0l5.4,3.12c.27.16.24.43-.08.61l-4,2.31A1.15,1.15,0,0,1,89.38,126.09Z"/><path class="cls-8" d="M89.13,120l23.49,13.57a.32.32,0,0,1,0,.61l-4.06,2.34a1.17,1.17,0,0,1-1.06,0L84,123Z"/><path class="cls-8" d="M134.32,149.08l3.76,2.17c.22.13.2.36-.06.5l-1.63.95a1,1,0,0,1-.87,0l-3.76-2.17c-.22-.13-.2-.35.06-.5l1.63-.94A1,1,0,0,1,134.32,149.08Z"/><path class="cls-8" d="M129.06,146l3.76,2.18c.22.12.2.35-.06.5l-1.63.94a1,1,0,0,1-.87,0l-3.76-2.17c-.23-.13-.2-.35.06-.5l1.63-.94A1,1,0,0,1,129.06,146Z"/><path class="cls-8" d="M123.84,143l3.76,2.17c.23.13.2.36-.06.5l-1.63,1a1,1,0,0,1-.87,0l-3.76-2.17c-.22-.13-.19-.35.06-.5l1.63-.94A1,1,0,0,1,123.84,143Z"/><path class="cls-8" d="M131.94,144.38l3.76,2.17c.22.13.2.35-.06.5L134,148a1,1,0,0,1-.87,0l-3.76-2.17c-.22-.13-.2-.35.06-.5l1.63-.94A1,1,0,0,1,131.94,144.38Z"/></g><g class="cls-7"><path class="cls-8" d="M64.17,111.54l-3.38-2c-.27-.16-.23-.43.08-.61l4-2.31a1.17,1.17,0,0,1,1.06,0l3.37,2c.28.16.24.43-.07.61l-4,2.3A1.14,1.14,0,0,1,64.17,111.54Z"/><path class="cls-8" d="M69.39,114.55l-3.38-2c-.27-.16-.24-.43.08-.61l4-2.3a1.21,1.21,0,0,1,1.06,0l3.38,2c.27.16.24.43-.07.61l-4,2.31A1.17,1.17,0,0,1,69.39,114.55Z"/><path class="cls-8" d="M74.61,117.56l-3.38-2c-.27-.15-.24-.43.07-.61l4-2.3a1.17,1.17,0,0,1,1.06,0l3.38,2c.27.15.24.43-.08.61l-4,2.3A1.17,1.17,0,0,1,74.61,117.56Z"/><path class="cls-8" d="M81.82,115.08l-3.38-2c-.27-.15-.23-.43.08-.61l3.35-1.93a1.17,1.17,0,0,1,1.06,0l3.37,1.95c.28.15.24.43-.07.61L82.88,115A1.21,1.21,0,0,1,81.82,115.08Z"/><path class="cls-8" d="M87,118.09l-3.38-2c-.27-.16-.24-.43.08-.61l3.35-1.94a1.15,1.15,0,0,1,1,0l3.38,2c.27.16.24.43-.07.61L88.1,118A1.21,1.21,0,0,1,87,118.09Z"/><path class="cls-8" d="M92.26,121.1l-3.38-1.95c-.27-.16-.24-.43.07-.61l3.35-1.93a1.17,1.17,0,0,1,1.06,0l3.38,2c.27.16.24.43-.08.61l-3.34,1.94A1.17,1.17,0,0,1,92.26,121.1Z"/><path class="cls-8" d="M97.47,124.11l-3.37-2c-.28-.16-.24-.43.07-.61l3.35-1.93a1.21,1.21,0,0,1,1.06-.05l3.38,2c.27.16.23.43-.08.62l-3.35,1.93A1.17,1.17,0,0,1,97.47,124.11Z"/><path class="cls-8" d="M102.69,127.12l-3.38-2c-.27-.15-.23-.43.08-.61l3.35-1.93a1.17,1.17,0,0,1,1.06,0l3.37,2c.27.15.24.43-.07.61l-3.35,1.93A1.17,1.17,0,0,1,102.69,127.12Z"/><path class="cls-8" d="M107.91,130.14l-3.38-1.95c-.27-.16-.24-.43.08-.62l3.34-1.93a1.17,1.17,0,0,1,1.06,0l3.38,2c.27.16.24.43-.08.61L109,130.09A1.21,1.21,0,0,1,107.91,130.14Z"/><path class="cls-8" d="M113.13,133.15l-3.38-2c-.27-.16-.24-.43.07-.61l3.35-1.94a1.17,1.17,0,0,1,1.06,0l3.38,1.95c.27.16.24.43-.08.61l-3.35,1.93A1.12,1.12,0,0,1,113.13,133.15Z"/><path class="cls-8" d="M118.34,136.16,115,134.21c-.28-.16-.24-.43.07-.61l3.35-1.93a1.21,1.21,0,0,1,1.06,0l3.38,1.95c.27.16.23.43-.08.61l-3.35,1.94A1.17,1.17,0,0,1,118.34,136.16Z"/><path class="cls-8" d="M123.56,139.17l-3.38-1.95c-.27-.15-.23-.43.08-.61l3.35-1.93a1.18,1.18,0,0,1,1-.05l3.38,2c.27.15.24.43-.07.61l-3.35,1.93A1.17,1.17,0,0,1,123.56,139.17Z"/><path class="cls-8" d="M128.78,142.19l-3.38-2c-.27-.15-.24-.43.08-.61l3.34-1.93a1.17,1.17,0,0,1,1.06,0l3.38,1.95c.27.15.24.43-.08.61l-3.34,1.93A1.21,1.21,0,0,1,128.78,142.19Z"/><path class="cls-8" d="M89.51,113.65l-3.38-2c-.27-.16-.24-.43.08-.61l3.35-1.93a1.12,1.12,0,0,1,1,0l3.38,2c.27.16.24.43-.07.61l-3.35,1.94A1.17,1.17,0,0,1,89.51,113.65Z"/><path class="cls-8" d="M84.21,110.59l-3.37-2c-.27-.16-.24-.43.07-.61l3.35-1.93a1.21,1.21,0,0,1,1.06,0l3.38,2c.27.16.23.43-.08.62l-3.35,1.93A1.17,1.17,0,0,1,84.21,110.59Z"/><path class="cls-8" d="M78.91,107.53l-7.28-4.2c-.27-.16-.23-.43.08-.61l3.35-1.93a1.14,1.14,0,0,1,1.06-.05l7.27,4.2c.27.16.24.43-.07.61L80,107.49A1.17,1.17,0,0,1,78.91,107.53Z"/><path class="cls-8" d="M82.62,103.81l-5.91-3.41c-.27-.16-.23-.43.08-.61l3.35-1.94a1.17,1.17,0,0,1,1.06,0l5.9,3.41c.27.16.24.43-.08.61l-3.34,1.93A1.21,1.21,0,0,1,82.62,103.81Z"/><path class="cls-8" d="M94.73,116.66l-3.38-2c-.27-.16-.24-.43.07-.61l3.35-1.93a1.21,1.21,0,0,1,1.06,0l3.38,1.95c.27.16.24.43-.08.61l-3.34,1.94A1.17,1.17,0,0,1,94.73,116.66Z"/><path class="cls-8" d="M99.94,119.67l-3.37-2c-.28-.15-.24-.43.07-.61l3.35-1.93a1.17,1.17,0,0,1,1.06,0l3.38,2c.27.15.23.43-.08.61L101,119.63A1.17,1.17,0,0,1,99.94,119.67Z"/><path class="cls-8" d="M105.16,122.69l-3.38-2c-.27-.16-.23-.43.08-.62l3.35-1.93a1.17,1.17,0,0,1,1.06,0l3.37,1.95c.27.15.24.43-.07.61l-3.35,1.93A1.21,1.21,0,0,1,105.16,122.69Z"/><path class="cls-8" d="M110.38,125.7l-3.38-2c-.27-.16-.24-.43.08-.61l3.34-1.94a1.17,1.17,0,0,1,1.06,0l3.38,2c.27.16.24.43-.08.61l-3.34,1.93A1.17,1.17,0,0,1,110.38,125.7Z"/><path class="cls-8" d="M115.6,128.71l-3.38-2c-.27-.16-.24-.43.07-.61l3.35-1.93a1.21,1.21,0,0,1,1.06,0l3.38,2c.27.16.24.43-.08.61l-3.35,1.94A1.15,1.15,0,0,1,115.6,128.71Z"/><path class="cls-8" d="M120.81,131.72l-3.37-1.95c-.28-.15-.24-.43.07-.61l3.35-1.93a1.21,1.21,0,0,1,1.06,0l3.38,1.95c.27.16.23.44-.08.62l-3.35,1.93A1.17,1.17,0,0,1,120.81,131.72Z"/><path class="cls-8" d="M126,134.73l-3.38-1.95c-.27-.15-.23-.43.08-.61l3.35-1.93a1.15,1.15,0,0,1,1,0l3.38,2c.27.15.24.43-.07.61l-3.35,1.93A1.17,1.17,0,0,1,126,134.73Z"/><path class="cls-8" d="M131.25,137.75l-3.38-1.95c-.27-.16-.24-.43.08-.61l3.34-1.94a1.17,1.17,0,0,1,1.06,0l3.38,1.95c.27.16.24.43-.08.61l-3.34,1.93A1.21,1.21,0,0,1,131.25,137.75Z"/><path class="cls-8" d="M136.47,140.76l-3.38-1.95c-.27-.16-.24-.43.07-.61l3.35-1.94a1.17,1.17,0,0,1,1.06,0l3.38,1.95c.27.16.23.43-.08.61l-3.35,1.94A1.15,1.15,0,0,1,136.47,140.76Z"/><path class="cls-8" d="M145.74,146.11l-7.37-4.25c-.27-.16-.24-.43.08-.61l3.34-1.94a1.17,1.17,0,0,1,1.06,0l7.37,4.26c.27.15.24.43-.07.61l-3.35,1.93A1.17,1.17,0,0,1,145.74,146.11Z"/><path class="cls-8" d="M155.9,140.25l-6.22-3.59c-.27-.16-.24-.43.07-.61l3.35-1.94a1.17,1.17,0,0,1,1.06,0l6.22,3.59c.27.16.24.43-.08.61L157,140.21A1.17,1.17,0,0,1,155.9,140.25Z"/><path class="cls-8" d="M103.86,116.07l-3.37-1.95c-.28-.16-.24-.43.07-.61l3.35-1.93a1.21,1.21,0,0,1,1.06,0l3.38,2c.27.16.23.43-.08.62L104.92,116A1.17,1.17,0,0,1,103.86,116.07Z"/><path class="cls-8" d="M98.52,113l-3.38-2c-.27-.15-.24-.43.07-.61l3.35-1.93a1.17,1.17,0,0,1,1.06,0l3.38,2c.27.15.24.43-.08.61l-3.34,1.93A1.17,1.17,0,0,1,98.52,113Z"/><path class="cls-8" d="M93.17,109.9l-3.38-2c-.27-.16-.24-.43.08-.61l3.34-1.94a1.17,1.17,0,0,1,1.06,0l3.38,2c.27.16.24.43-.07.61l-3.35,1.93A1.21,1.21,0,0,1,93.17,109.9Z"/><path class="cls-8" d="M87.82,106.81l-3.38-2c-.27-.16-.23-.43.08-.61l3.35-1.93a1.2,1.2,0,0,1,1.06,0l3.37,2c.28.16.24.43-.07.61l-3.35,1.94A1.17,1.17,0,0,1,87.82,106.81Z"/><path class="cls-8" d="M109.08,119.08l-3.38-2c-.27-.15-.23-.43.08-.61l3.35-1.93a1.15,1.15,0,0,1,1.05,0l3.38,2c.27.15.24.43-.07.61L110.14,119A1.17,1.17,0,0,1,109.08,119.08Z"/><path class="cls-8" d="M114.3,122.1l-3.38-1.95c-.27-.16-.24-.43.08-.61l3.34-1.94a1.17,1.17,0,0,1,1.06,0l3.38,2c.27.16.24.43-.08.61l-3.34,1.93A1.21,1.21,0,0,1,114.3,122.1Z"/><path class="cls-8" d="M119.52,125.11l-3.38-2c-.27-.16-.24-.43.07-.61l3.35-1.94a1.17,1.17,0,0,1,1.06,0l3.38,2c.27.16.23.43-.08.61l-3.35,1.93A1.12,1.12,0,0,1,119.52,125.11Z"/><path class="cls-8" d="M124.73,128.12l-3.38-2c-.27-.16-.23-.43.08-.61l3.35-1.93a1.21,1.21,0,0,1,1.06,0l3.37,2c.28.16.24.43-.07.61l-3.35,1.94A1.17,1.17,0,0,1,124.73,128.12Z"/><path class="cls-8" d="M130,131.13l-3.38-1.95c-.27-.15-.24-.43.08-.61l3.35-1.93a1.15,1.15,0,0,1,1.05,0l3.38,2c.27.15.24.43-.07.61L131,131.09A1.17,1.17,0,0,1,130,131.13Z"/><path class="cls-8" d="M135.17,134.15l-3.38-2c-.27-.15-.24-.43.08-.61l3.34-1.93a1.17,1.17,0,0,1,1.06,0l3.38,1.95c.27.15.24.43-.08.61l-3.34,1.93A1.21,1.21,0,0,1,135.17,134.15Z"/><path class="cls-8" d="M140.38,137.16,137,135.21c-.27-.16-.24-.43.07-.61l3.35-1.94a1.17,1.17,0,0,1,1.06,0l3.38,1.95c.27.16.23.43-.08.61l-3.35,1.93A1.2,1.2,0,0,1,140.38,137.16Z"/><path class="cls-8" d="M145.6,140.17l-3.38-1.95c-.27-.16-.23-.43.08-.61l3.35-1.93a1.17,1.17,0,0,1,1.06-.05l3.37,2c.28.16.24.43-.07.61l-3.35,1.94A1.17,1.17,0,0,1,145.6,140.17Z"/><path class="cls-8" d="M150.82,143.18l-3.38-2c-.27-.16-.24-.43.08-.61l3.34-1.93a1.21,1.21,0,0,1,1.06-.05l3.38,2c.27.16.24.43-.07.62l-3.35,1.93A1.17,1.17,0,0,1,150.82,143.18Z"/><path class="cls-8" d="M101.12,108.62l-3.38-2c-.27-.16-.24-.43.07-.61l3.35-1.93a1.21,1.21,0,0,1,1.06,0l3.38,2c.27.16.24.43-.08.62l-3.34,1.93A1.17,1.17,0,0,1,101.12,108.62Z"/><path class="cls-8" d="M95.93,105.62l-3.38-2c-.27-.15-.24-.43.07-.61L96,101.13a1.17,1.17,0,0,1,1.06,0l3.38,2c.27.15.23.43-.08.61L97,105.58A1.15,1.15,0,0,1,95.93,105.62Z"/><path class="cls-8" d="M90.73,102.63l-3.37-1.95c-.28-.16-.24-.43.07-.61l3.35-1.94a1.17,1.17,0,0,1,1.06,0l3.38,2c.27.16.23.43-.08.61l-3.35,1.93A1.2,1.2,0,0,1,90.73,102.63Z"/><path class="cls-8" d="M85.54,99.63l-3.38-1.95c-.27-.16-.23-.43.08-.61l3.35-1.93a1.17,1.17,0,0,1,1.06,0L90,97c.28.16.24.43-.07.61L86.6,99.59A1.17,1.17,0,0,1,85.54,99.63Z"/><path class="cls-8" d="M90.88,96.55l-3.38-2c-.27-.16-.23-.43.08-.61l1.11-.64a1.18,1.18,0,0,1,1,0l3.38,2c.27.16.24.43-.07.62l-1.11.63A1.21,1.21,0,0,1,90.88,96.55Z"/><path class="cls-8" d="M97.66,100.46l-3.38-1.95c-.27-.16-.24-.43.07-.61l1.11-.64a1.21,1.21,0,0,1,1.06-.05l3.38,2c.27.15.23.43-.08.61l-1.11.64A1.15,1.15,0,0,1,97.66,100.46Z"/><path class="cls-8" d="M102.83,103.44l-3.38-2c-.27-.15-.24-.43.07-.61l1.11-.64a1.17,1.17,0,0,1,1.06,0l3.38,2c.27.16.23.43-.08.61l-1.11.64A1.15,1.15,0,0,1,102.83,103.44Z"/><path class="cls-8" d="M108,106.43l-3.38-2c-.27-.16-.24-.43.07-.61l1.11-.64a1.21,1.21,0,0,1,1.06,0l3.38,1.95c.27.16.23.44-.08.62l-1.11.63A1.12,1.12,0,0,1,108,106.43Z"/><path class="cls-8" d="M113.16,109.41l-3.37-2c-.27-.15-.24-.43.07-.61l1.11-.64a1.17,1.17,0,0,1,1.06,0l3.38,2c.27.16.23.43-.08.61l-1.11.64A1.17,1.17,0,0,1,113.16,109.41Z"/><path class="cls-8" d="M142,126.08l-3.38-2c-.27-.16-.24-.43.07-.61l1.11-.64a1.21,1.21,0,0,1,1.06,0l3.38,2c.27.16.23.43-.08.61l-1.11.64A1.18,1.18,0,0,1,142,126.08Z"/><path class="cls-8" d="M147.2,129.06l-3.38-2c-.27-.16-.24-.43.07-.61l1.11-.64a1.17,1.17,0,0,1,1.06,0l3.38,2c.27.15.23.43-.08.61l-1.11.64A1.15,1.15,0,0,1,147.2,129.06Z"/><path class="cls-8" d="M152.37,132.05l-3.38-2c-.27-.16-.24-.43.07-.62l1.11-.63a1.17,1.17,0,0,1,1.06,0l3.38,1.95c.27.16.23.43-.08.61l-1.11.64A1.18,1.18,0,0,1,152.37,132.05Z"/><path class="cls-8" d="M157.54,135l-3.38-1.95c-.27-.16-.24-.43.07-.61l1.11-.64a1.17,1.17,0,0,1,1.06,0l3.38,2c.27.15.23.43-.08.61l-1.11.64A1.15,1.15,0,0,1,157.54,135Z"/><path class="cls-8" d="M106.33,111.63,103,109.68c-.28-.15-.24-.43.07-.61l3.35-1.93a1.17,1.17,0,0,1,1.06,0l3.38,2c.27.15.23.43-.08.61l-3.35,1.93A1.17,1.17,0,0,1,106.33,111.63Z"/><path class="cls-8" d="M111.55,114.65l-3.38-2c-.27-.16-.23-.43.08-.62l3.35-1.93a1.15,1.15,0,0,1,1.05,0l3.38,2c.27.16.24.43-.07.61l-3.35,1.93A1.21,1.21,0,0,1,111.55,114.65Z"/><path class="cls-8" d="M116.77,117.66l-3.38-2c-.27-.16-.24-.43.08-.61l3.34-1.94a1.17,1.17,0,0,1,1.06,0l3.38,1.95c.27.16.24.43-.08.61l-3.34,1.93A1.17,1.17,0,0,1,116.77,117.66Z"/><path class="cls-8" d="M122,120.67l-3.38-2c-.27-.16-.24-.43.07-.61l3.35-1.93a1.21,1.21,0,0,1,1.06-.05l3.38,2c.27.16.23.43-.08.61L123,120.63A1.15,1.15,0,0,1,122,120.67Z"/><path class="cls-8" d="M127.2,123.68l-3.38-2c-.27-.15-.23-.43.08-.61l3.35-1.93a1.21,1.21,0,0,1,1.06,0l3.37,2c.28.15.24.43-.07.61l-3.35,1.93A1.17,1.17,0,0,1,127.2,123.68Z"/><path class="cls-8" d="M132.42,126.69l-3.38-2c-.27-.15-.24-.43.08-.61l3.35-1.93a1.15,1.15,0,0,1,1.05,0l3.38,2c.27.15.24.43-.07.61l-3.35,1.93A1.17,1.17,0,0,1,132.42,126.69Z"/><path class="cls-8" d="M137.64,129.71l-3.38-2c-.27-.16-.24-.43.08-.61l3.34-1.94a1.17,1.17,0,0,1,1.06,0l3.38,2c.27.16.24.43-.08.61l-3.34,1.93A1.21,1.21,0,0,1,137.64,129.71Z"/><path class="cls-8" d="M142.86,132.72l-3.38-1.95c-.27-.16-.24-.43.07-.61l3.35-1.93a1.14,1.14,0,0,1,1.06,0l3.38,1.95c.27.16.23.43-.08.61l-3.35,1.94A1.15,1.15,0,0,1,142.86,132.72Z"/><path class="cls-8" d="M148.07,135.73l-3.38-1.95c-.27-.16-.23-.43.08-.61l3.35-1.93a1.2,1.2,0,0,1,1.06-.05l3.37,1.95c.28.16.24.43-.07.61l-3.35,1.94A1.17,1.17,0,0,1,148.07,135.73Z"/><path class="cls-8" d="M76.51,112l-10-5.75c-.28-.16-.24-.43.07-.61L70,103.72a1.21,1.21,0,0,1,1.06,0L81,109.42c.27.15.23.43-.08.61L77.56,112A1.18,1.18,0,0,1,76.51,112Z"/><path class="cls-8" d="M140.6,149l-9.95-5.74c-.27-.16-.24-.43.08-.61l3.35-1.94a1.15,1.15,0,0,1,1,0l10,5.74c.27.16.24.43-.07.61L141.66,149A1.17,1.17,0,0,1,140.6,149Z"/><path class="cls-8" d="M119.74,143.62l-3.38-2c-.27-.16-.24-.43.07-.61l4-2.31a1.17,1.17,0,0,1,1.06,0l3.38,1.95c.27.16.24.43-.08.61l-4,2.3A1.14,1.14,0,0,1,119.74,143.62Z"/><path class="cls-8" d="M81.85,121.74l-5.4-3.12c-.28-.15-.24-.43.07-.61l4-2.3a1.17,1.17,0,0,1,1.06,0l5.4,3.12c.27.15.24.43-.08.61l-4,2.3A1.17,1.17,0,0,1,81.85,121.74Z"/><path class="cls-8" d="M114.71,140.72l-5.4-3.12c-.27-.16-.24-.43.07-.61l4-2.31a1.17,1.17,0,0,1,1.06,0l5.4,3.12c.27.16.24.43-.07.61l-4,2.3A1.21,1.21,0,0,1,114.71,140.72Z"/><path class="cls-8" d="M89.38,126.09,84,123c-.27-.16-.23-.43.08-.61l4-2.3a1.2,1.2,0,0,1,1.06,0l5.4,3.12c.27.16.24.43-.08.61l-4,2.31A1.15,1.15,0,0,1,89.38,126.09Z"/><path class="cls-8" d="M89.13,120l23.49,13.57a.32.32,0,0,1,0,.61l-4.06,2.34a1.17,1.17,0,0,1-1.06,0L84,123Z"/><path class="cls-8" d="M134.32,149.08l3.76,2.17c.22.13.2.36-.06.5l-1.63.95a1,1,0,0,1-.87,0l-3.76-2.17c-.22-.13-.2-.35.06-.5l1.63-.94A1,1,0,0,1,134.32,149.08Z"/><path class="cls-8" d="M129.06,146l3.76,2.18c.22.12.2.35-.06.5l-1.63.94a1,1,0,0,1-.87,0l-3.76-2.17c-.23-.13-.2-.35.06-.5l1.63-.94A1,1,0,0,1,129.06,146Z"/><path class="cls-8" d="M123.84,143l3.76,2.17c.23.13.2.36-.06.5l-1.63,1a1,1,0,0,1-.87,0l-3.76-2.17c-.22-.13-.19-.35.06-.5l1.63-.94A1,1,0,0,1,123.84,143Z"/><path class="cls-8" d="M131.94,144.38l3.76,2.17c.22.13.2.35-.06.5L134,148a1,1,0,0,1-.87,0l-3.76-2.17c-.22-.13-.2-.35.06-.5l1.63-.94A1,1,0,0,1,131.94,144.38Z"/></g><path class="cls-9" d="M187.16,138.29,87.48,80.74a4.43,4.43,0,0,1-1.83-4.93L108.2,2.63A2.55,2.55,0,0,1,112,1l99.68,57.55a4.4,4.4,0,0,1,1.82,4.92L191,136.64A2.56,2.56,0,0,1,187.16,138.29Z"/><path class="cls-10" d="M186.22,135.72,89.54,79.86a4.22,4.22,0,0,1-1.75-4.71l21.55-70A2.45,2.45,0,0,1,113,3.6L209.7,59.47a4.22,4.22,0,0,1,1.75,4.71l-21.55,70A2.45,2.45,0,0,1,186.22,135.72Z"/><path class="cls-11" d="M186.22,135.72,89.54,79.86a4.22,4.22,0,0,1-1.75-4.71l21.55-70A2.45,2.45,0,0,1,113,3.6L209.7,59.47a4.22,4.22,0,0,1,1.75,4.71l-21.55,70A2.45,2.45,0,0,1,186.22,135.72Z"/><path class="cls-11" d="M186.22,135.72,89.54,79.86a4.22,4.22,0,0,1-1.75-4.71l21.55-70A2.45,2.45,0,0,1,113,3.6L209.7,59.47a4.22,4.22,0,0,1,1.75,4.71l-21.55,70A2.45,2.45,0,0,1,186.22,135.72Z"/><path class="cls-12" d="M181,114.34,115.58,76.56a2.91,2.91,0,0,1-1.2-3.24l14.8-48a1.67,1.67,0,0,1,2.52-1.08L197.15,62a2.9,2.9,0,0,1,1.2,3.24l-14.8,48.05A1.68,1.68,0,0,1,181,114.34Z"/><path class="cls-13" d="M172.18,115.5,106.73,77.72a2.92,2.92,0,0,1-1.2-3.24l14.8-48.05a1.68,1.68,0,0,1,2.53-1.08l65.45,37.78a2.91,2.91,0,0,1,1.2,3.24l-14.8,48.05A1.68,1.68,0,0,1,172.18,115.5Z"/><g class="cls-14"><path class="cls-8" d="M172.18,115.5,106.73,77.72a2.92,2.92,0,0,1-1.2-3.24l14.8-48.05a1.68,1.68,0,0,1,2.53-1.08l65.45,37.78a2.91,2.91,0,0,1,1.2,3.24l-14.8,48.05A1.68,1.68,0,0,1,172.18,115.5Z"/></g><path class="cls-6" d="M188.31,63.13,122.86,25.35a1.62,1.62,0,0,0-1.84.06,1.74,1.74,0,0,1,.94.24l65.45,37.79a2.89,2.89,0,0,1,1.2,3.23l-14.8,48.05a1.92,1.92,0,0,1-.69,1,1.73,1.73,0,0,0,1.59-1.32l14.8-48A2.91,2.91,0,0,0,188.31,63.13Z"/><path class="cls-11" d="M89.64,154.74a4.83,4.83,0,0,1-2.43-.57h0L61,139a1.92,1.92,0,0,1-1.08-1.62,2.48,2.48,0,0,1,1.45-2l13.5-7.8a6,6,0,0,1,5.51-.21l26.22,15.14a1.9,1.9,0,0,1,1.08,1.62,2.48,2.48,0,0,1-1.45,2L92.72,154A6.24,6.24,0,0,1,89.64,154.74ZM78,127.61a5.62,5.62,0,0,0-2.72.67l-13.5,7.79c-.68.39-1.07.89-1.07,1.35a1.19,1.19,0,0,0,.7,1l26.22,15.14a5.39,5.39,0,0,0,4.75-.21l13.5-7.8c.68-.39,1.07-.88,1.07-1.34a1.19,1.19,0,0,0-.7-1L80,128.07A4.12,4.12,0,0,0,78,127.61Z"/><text class="cls-15" transform="translate(239.56 129.59)">SMARTMONITOR</text></g></g></svg>